<svg xmlns="http://www.w3.org/2000/svg" version="1.1" xmlns:xlink="http://www.w3.org/1999/xlink" xmlns:svgjs="http://svgjs.dev/svgjs" width="1920" height="1080" preserveAspectRatio="none" viewBox="0 0 1920 1080"><g mask="url(&quot;#SvgjsMask1003&quot;)" fill="none"><rect width="1920" height="1080" x="0" y="0" fill="url(&quot;#SvgjsLinearGradient1004&quot;)"></rect><g mask="url(&quot;#SvgjsMask1005&quot;)"><path d="M1660 940L1660 180" stroke-width="6.67" stroke="#3a7cc3"></path><path d="M1650 940 a10 10 0 1 0 20 0 a10 10 0 1 0 -20 0zM1650 180 a10 10 0 1 0 20 0 a10 10 0 1 0 -20 0z" fill="#3a7cc3"></path><path d="M820 940L940 1060L1100 1060L1580 580" stroke-width="6.67" stroke="#3a7cc3"></path><path d="M810 940 a10 10 0 1 0 20 0 a10 10 0 1 0 -20 0zM1570 580 a10 10 0 1 0 20 0 a10 10 0 1 0 -20 0z" fill="#3a7cc3"></path><path d="M100 620L20 620" stroke-width="6.67" stroke="#3a7cc3"></path><path d="M90 620 a10 10 0 1 0 20 0 a10 10 0 1 0 -20 0zM10 620 a10 10 0 1 0 20 0 a10 10 0 1 0 -20 0z" fill="#3a7cc3"></path><path d="M980 900L820 900L660 1060L220 1060" stroke-width="6.67" stroke="#3a7cc3"></path><path d="M970 900 a10 10 0 1 0 20 0 a10 10 0 1 0 -20 0zM210 1060 a10 10 0 1 0 20 0 a10 10 0 1 0 -20 0z" fill="#3a7cc3"></path><path d="M1220 420L1220 900L1180 940L940 940" stroke-width="6.67" stroke="#3a7cc3"></path><path d="M1210 420 a10 10 0 1 0 20 0 a10 10 0 1 0 -20 0zM930 940 a10 10 0 1 0 20 0 a10 10 0 1 0 -20 0z" fill="#3a7cc3"></path><path d="M1500 220L1300 20L740 20" stroke-width="6.67" stroke="#3a7cc3"></path><path d="M1490 220 a10 10 0 1 0 20 0 a10 10 0 1 0 -20 0zM730 20 a10 10 0 1 0 20 0 a10 10 0 1 0 -20 0z" fill="#3a7cc3"></path><path d="M1740 340L1820 340L1900 420L1900 900L1860 940L1860 1020" stroke-width="6.67" stroke="#3a7cc3"></path><path d="M1730 340 a10 10 0 1 0 20 0 a10 10 0 1 0 -20 0zM1850 1020 a10 10 0 1 0 20 0 a10 10 0 1 0 -20 0z" fill="#3a7cc3"></path><path d="M180 860L180 620L340 460L700 460" stroke-width="6.67" stroke="#3a7cc3"></path><path d="M170 860 a10 10 0 1 0 20 0 a10 10 0 1 0 -20 0zM690 460 a10 10 0 1 0 20 0 a10 10 0 1 0 -20 0z" fill="#3a7cc3"></path><path d="M140 20L540 20L900 380" stroke-width="6.67" stroke="#3a7cc3"></path><path d="M130 20 a10 10 0 1 0 20 0 a10 10 0 1 0 -20 0zM890 380 a10 10 0 1 0 20 0 a10 10 0 1 0 -20 0z" fill="#3a7cc3"></path><path d="M780 340L700 340L620 420L20 420" stroke-width="6.67" stroke="#3a7cc3"></path><path d="M770 340 a10 10 0 1 0 20 0 a10 10 0 1 0 -20 0zM10 420 a10 10 0 1 0 20 0 a10 10 0 1 0 -20 0z" fill="#3a7cc3"></path><path d="M740 380L700 420L660 420" stroke-width="6.67" stroke="#3a7cc3"></path><path d="M730 380 a10 10 0 1 0 20 0 a10 10 0 1 0 -20 0zM650 420 a10 10 0 1 0 20 0 a10 10 0 1 0 -20 0z" fill="#3a7cc3"></path><path d="M1740 260L1900 260" stroke-width="6.67" stroke="#3a7cc3"></path><path d="M1730 260 a10 10 0 1 0 20 0 a10 10 0 1 0 -20 0zM1890 260 a10 10 0 1 0 20 0 a10 10 0 1 0 -20 0z" fill="#3a7cc3"></path><path d="M260 980L260 580L340 500L420 500L620 700" stroke-width="6.67" stroke="#3a7cc3"></path><path d="M250 980 a10 10 0 1 0 20 0 a10 10 0 1 0 -20 0zM610 700 a10 10 0 1 0 20 0 a10 10 0 1 0 -20 0z" fill="#3a7cc3"></path><path d="M1580 900L1580 1060" stroke-width="6.67" stroke="#3a7cc3"></path><path d="M1570 900 a10 10 0 1 0 20 0 a10 10 0 1 0 -20 0zM1570 1060 a10 10 0 1 0 20 0 a10 10 0 1 0 -20 0z" fill="#3a7cc3"></path><path d="M1780 220L1900 220" stroke-width="6.67" stroke="#3a7cc3"></path><path d="M1770 220 a10 10 0 1 0 20 0 a10 10 0 1 0 -20 0zM1890 220 a10 10 0 1 0 20 0 a10 10 0 1 0 -20 0z" fill="#3a7cc3"></path><path d="M300 220L460 60L540 60L780 300" stroke-width="6.67" stroke="#3a7cc3"></path><path d="M290 220 a10 10 0 1 0 20 0 a10 10 0 1 0 -20 0zM770 300 a10 10 0 1 0 20 0 a10 10 0 1 0 -20 0z" fill="#3a7cc3"></path><path d="M100 300L180 380L580 380L660 300L740 300" stroke-width="6.67" stroke="#3a7cc3"></path><path d="M90 300 a10 10 0 1 0 20 0 a10 10 0 1 0 -20 0zM730 300 a10 10 0 1 0 20 0 a10 10 0 1 0 -20 0z" fill="#3a7cc3"></path><path d="M1300 780L1300 460L1420 340L1420 300L1300 180L1300 140L1260 100L1180 100" stroke-width="6.67" stroke="#3a7cc3"></path><path d="M1290 780 a10 10 0 1 0 20 0 a10 10 0 1 0 -20 0zM1170 100 a10 10 0 1 0 20 0 a10 10 0 1 0 -20 0z" fill="#3a7cc3"></path><path d="M1820 820L1860 860L1860 900L1700 1060L1620 1060" stroke-width="6.67" stroke="#3a7cc3"></path><path d="M1810 820 a10 10 0 1 0 20 0 a10 10 0 1 0 -20 0zM1610 1060 a10 10 0 1 0 20 0 a10 10 0 1 0 -20 0z" fill="#3a7cc3"></path><path d="M1380 900L1220 1060L1140 1060" stroke-width="6.67" stroke="#3a7cc3"></path><path d="M1370 900 a10 10 0 1 0 20 0 a10 10 0 1 0 -20 0zM1130 1060 a10 10 0 1 0 20 0 a10 10 0 1 0 -20 0z" fill="#3a7cc3"></path><path d="M460 1020L380 940L300 940" stroke-width="6.67" stroke="#3a7cc3"></path><path d="M450 1020 a10 10 0 1 0 20 0 a10 10 0 1 0 -20 0zM290 940 a10 10 0 1 0 20 0 a10 10 0 1 0 -20 0z" fill="#3a7cc3"></path><path d="M180 980L220 1020L420 1020" stroke-width="6.67" stroke="#3a7cc3"></path><path d="M170 980 a10 10 0 1 0 20 0 a10 10 0 1 0 -20 0zM410 1020 a10 10 0 1 0 20 0 a10 10 0 1 0 -20 0z" fill="#3a7cc3"></path><path d="M1580 20L1340 20" stroke-width="6.67" stroke="#3a7cc3"></path><path d="M1570 20 a10 10 0 1 0 20 0 a10 10 0 1 0 -20 0zM1330 20 a10 10 0 1 0 20 0 a10 10 0 1 0 -20 0z" fill="#3a7cc3"></path><path d="M700 500L540 500L500 540" stroke-width="6.67" stroke="#3a7cc3"></path><path d="M690 500 a10 10 0 1 0 20 0 a10 10 0 1 0 -20 0zM490 540 a10 10 0 1 0 20 0 a10 10 0 1 0 -20 0z" fill="#3a7cc3"></path><path d="M20 700L20 1060" stroke-width="6.67" stroke="#3a7cc3"></path><path d="M10 700 a10 10 0 1 0 20 0 a10 10 0 1 0 -20 0zM10 1060 a10 10 0 1 0 20 0 a10 10 0 1 0 -20 0z" fill="#3a7cc3"></path><path d="M980 460L460 980" stroke-width="6.67" stroke="#3a7cc3"></path><path d="M970 460 a10 10 0 1 0 20 0 a10 10 0 1 0 -20 0zM450 980 a10 10 0 1 0 20 0 a10 10 0 1 0 -20 0z" fill="#3a7cc3"></path><path d="M300 580L300 900" stroke-width="6.67" stroke="#3a7cc3"></path><path d="M290 580 a10 10 0 1 0 20 0 a10 10 0 1 0 -20 0zM290 900 a10 10 0 1 0 20 0 a10 10 0 1 0 -20 0z" fill="#3a7cc3"></path><path d="M700 540L700 700L580 820L500 820L460 780L340 780" stroke-width="6.67" stroke="#3a7cc3"></path><path d="M690 540 a10 10 0 1 0 20 0 a10 10 0 1 0 -20 0zM330 780 a10 10 0 1 0 20 0 a10 10 0 1 0 -20 0z" fill="#3a7cc3"></path><path d="M100 780L100 660L300 460" stroke-width="6.67" stroke="#3a7cc3"></path><path d="M90 780 a10 10 0 1 0 20 0 a10 10 0 1 0 -20 0zM290 460 a10 10 0 1 0 20 0 a10 10 0 1 0 -20 0z" fill="#3a7cc3"></path><path d="M100 140L180 60L420 60" stroke-width="6.67" stroke="#3a7cc3"></path><path d="M90 140 a10 10 0 1 0 20 0 a10 10 0 1 0 -20 0zM410 60 a10 10 0 1 0 20 0 a10 10 0 1 0 -20 0z" fill="#3a7cc3"></path><path d="M20 60L60 100L60 380" stroke-width="6.67" stroke="#3a7cc3"></path><path d="M10 60 a10 10 0 1 0 20 0 a10 10 0 1 0 -20 0zM50 380 a10 10 0 1 0 20 0 a10 10 0 1 0 -20 0z" fill="#3a7cc3"></path><path d="M1060 860L1180 740L1180 140L1140 100" stroke-width="6.67" stroke="#3a7cc3"></path><path d="M1050 860 a10 10 0 1 0 20 0 a10 10 0 1 0 -20 0zM1130 100 a10 10 0 1 0 20 0 a10 10 0 1 0 -20 0z" fill="#3a7cc3"></path><path d="M700 820L500 1020" stroke-width="6.67" stroke="#3a7cc3"></path><path d="M690 820 a10 10 0 1 0 20 0 a10 10 0 1 0 -20 0zM490 1020 a10 10 0 1 0 20 0 a10 10 0 1 0 -20 0z" fill="#3a7cc3"></path><path d="M980 700L660 1020L540 1020" stroke-width="6.67" stroke="#3a7cc3"></path><path d="M970 700 a10 10 0 1 0 20 0 a10 10 0 1 0 -20 0zM530 1020 a10 10 0 1 0 20 0 a10 10 0 1 0 -20 0z" fill="#3a7cc3"></path><path d="M460 580L340 700L340 740" stroke-width="6.67" stroke="#3a7cc3"></path><path d="M450 580 a10 10 0 1 0 20 0 a10 10 0 1 0 -20 0zM330 740 a10 10 0 1 0 20 0 a10 10 0 1 0 -20 0z" fill="#3a7cc3"></path><path d="M900 580L1060 740L1060 820L1020 860L860 860" stroke-width="6.67" stroke="#3a7cc3"></path><path d="M890 580 a10 10 0 1 0 20 0 a10 10 0 1 0 -20 0zM850 860 a10 10 0 1 0 20 0 a10 10 0 1 0 -20 0z" fill="#3a7cc3"></path><path d="M1780 780L1860 780" stroke-width="6.67" stroke="#3a7cc3"></path><path d="M1770 780 a10 10 0 1 0 20 0 a10 10 0 1 0 -20 0zM1850 780 a10 10 0 1 0 20 0 a10 10 0 1 0 -20 0z" fill="#3a7cc3"></path><path d="M1860 340L1820 300L1700 300" stroke-width="6.67" stroke="#3a7cc3"></path><path d="M1850 340 a10 10 0 1 0 20 0 a10 10 0 1 0 -20 0zM1690 300 a10 10 0 1 0 20 0 a10 10 0 1 0 -20 0z" fill="#3a7cc3"></path><path d="M1140 820L1060 900L1020 900" stroke-width="6.67" stroke="#3a7cc3"></path><path d="M1130 820 a10 10 0 1 0 20 0 a10 10 0 1 0 -20 0zM1010 900 a10 10 0 1 0 20 0 a10 10 0 1 0 -20 0z" fill="#3a7cc3"></path><path d="M1540 420L1540 580L1500 620L1420 620L1340 540L1340 460L1660 140" stroke-width="6.67" stroke="#3a7cc3"></path><path d="M1530 420 a10 10 0 1 0 20 0 a10 10 0 1 0 -20 0zM1650 140 a10 10 0 1 0 20 0 a10 10 0 1 0 -20 0z" fill="#3a7cc3"></path><path d="M580 700L500 620L460 620L380 700L380 740" stroke-width="6.67" stroke="#3a7cc3"></path><path d="M570 700 a10 10 0 1 0 20 0 a10 10 0 1 0 -20 0zM370 740 a10 10 0 1 0 20 0 a10 10 0 1 0 -20 0z" fill="#3a7cc3"></path><path d="M1780 540L1860 540" stroke-width="6.67" stroke="#3a7cc3"></path><path d="M1770 540 a10 10 0 1 0 20 0 a10 10 0 1 0 -20 0zM1850 540 a10 10 0 1 0 20 0 a10 10 0 1 0 -20 0z" fill="#3a7cc3"></path><path d="M1620 1020L1620 660L1580 620" stroke-width="6.67" stroke="#3a7cc3"></path><path d="M1610 1020 a10 10 0 1 0 20 0 a10 10 0 1 0 -20 0zM1570 620 a10 10 0 1 0 20 0 a10 10 0 1 0 -20 0z" fill="#3a7cc3"></path><path d="M420 180L420 140L460 100L540 100L620 180L620 300L580 340L540 340L380 180" stroke-width="6.67" stroke="#3a7cc3"></path><path d="M410 180 a10 10 0 1 0 20 0 a10 10 0 1 0 -20 0zM370 180 a10 10 0 1 0 20 0 a10 10 0 1 0 -20 0z" fill="#3a7cc3"></path><path d="M1660 100L1420 100L1380 60" stroke-width="6.67" stroke="#3a7cc3"></path><path d="M1650 100 a10 10 0 1 0 20 0 a10 10 0 1 0 -20 0zM1370 60 a10 10 0 1 0 20 0 a10 10 0 1 0 -20 0z" fill="#3a7cc3"></path><path d="M900 740L940 700L940 660" stroke-width="6.67" stroke="#3a7cc3"></path><path d="M890 740 a10 10 0 1 0 20 0 a10 10 0 1 0 -20 0zM930 660 a10 10 0 1 0 20 0 a10 10 0 1 0 -20 0z" fill="#3a7cc3"></path><path d="M820 140L900 60L1260 60L1460 260L1500 260" stroke-width="6.67" stroke="#3a7cc3"></path><path d="M810 140 a10 10 0 1 0 20 0 a10 10 0 1 0 -20 0zM1490 260 a10 10 0 1 0 20 0 a10 10 0 1 0 -20 0z" fill="#3a7cc3"></path><path d="M620 940L700 940L740 900L740 740L820 660" stroke-width="6.67" stroke="#3a7cc3"></path><path d="M610 940 a10 10 0 1 0 20 0 a10 10 0 1 0 -20 0zM810 660 a10 10 0 1 0 20 0 a10 10 0 1 0 -20 0z" fill="#3a7cc3"></path><path d="M1620 580L1580 540L1580 500" stroke-width="6.67" stroke="#3a7cc3"></path><path d="M1610 580 a10 10 0 1 0 20 0 a10 10 0 1 0 -20 0zM1570 500 a10 10 0 1 0 20 0 a10 10 0 1 0 -20 0z" fill="#3a7cc3"></path><path d="M460 740L460 660" stroke-width="6.67" stroke="#3a7cc3"></path><path d="M450 740 a10 10 0 1 0 20 0 a10 10 0 1 0 -20 0zM450 660 a10 10 0 1 0 20 0 a10 10 0 1 0 -20 0z" fill="#3a7cc3"></path><path d="M660 660L620 660L540 580" stroke-width="6.67" stroke="#3a7cc3"></path><path d="M650 660 a10 10 0 1 0 20 0 a10 10 0 1 0 -20 0zM530 580 a10 10 0 1 0 20 0 a10 10 0 1 0 -20 0z" fill="#3a7cc3"></path><path d="M1260 780L1260 380L1220 340L1220 140" stroke-width="6.67" stroke="#3a7cc3"></path><path d="M1250 780 a10 10 0 1 0 20 0 a10 10 0 1 0 -20 0zM1210 140 a10 10 0 1 0 20 0 a10 10 0 1 0 -20 0z" fill="#3a7cc3"></path><path d="M1700 420L1780 500L1860 500" stroke-width="6.67" stroke="#3a7cc3"></path><path d="M1690 420 a10 10 0 1 0 20 0 a10 10 0 1 0 -20 0zM1850 500 a10 10 0 1 0 20 0 a10 10 0 1 0 -20 0z" fill="#3a7cc3"></path><path d="M1180 900L1100 900" stroke-width="6.67" stroke="#3a7cc3"></path><path d="M1170 900 a10 10 0 1 0 20 0 a10 10 0 1 0 -20 0zM1090 900 a10 10 0 1 0 20 0 a10 10 0 1 0 -20 0z" fill="#3a7cc3"></path><path d="M1860 20L1900 60L1900 180" stroke-width="6.67" stroke="#3a7cc3"></path><path d="M1850 20 a10 10 0 1 0 20 0 a10 10 0 1 0 -20 0zM1890 180 a10 10 0 1 0 20 0 a10 10 0 1 0 -20 0z" fill="#3a7cc3"></path><path d="M460 900L380 820L340 820" stroke-width="6.67" stroke="#3a7cc3"></path><path d="M450 900 a10 10 0 1 0 20 0 a10 10 0 1 0 -20 0zM330 820 a10 10 0 1 0 20 0 a10 10 0 1 0 -20 0z" fill="#3a7cc3"></path><path d="M660 580L620 540L580 540" stroke-width="6.67" stroke="#3a7cc3"></path><path d="M650 580 a10 10 0 1 0 20 0 a10 10 0 1 0 -20 0zM570 540 a10 10 0 1 0 20 0 a10 10 0 1 0 -20 0z" fill="#3a7cc3"></path><path d="M940 340L940 460L740 660" stroke-width="6.67" stroke="#3a7cc3"></path><path d="M930 340 a10 10 0 1 0 20 0 a10 10 0 1 0 -20 0zM730 660 a10 10 0 1 0 20 0 a10 10 0 1 0 -20 0z" fill="#3a7cc3"></path><path d="M1780 940L1820 900L1820 860L1700 740L1700 660" stroke-width="6.67" stroke="#3a7cc3"></path><path d="M1770 940 a10 10 0 1 0 20 0 a10 10 0 1 0 -20 0zM1690 660 a10 10 0 1 0 20 0 a10 10 0 1 0 -20 0z" fill="#3a7cc3"></path><path d="M420 300L380 340L180 340L100 260L100 180L180 100L380 100" stroke-width="6.67" stroke="#3a7cc3"></path><path d="M410 300 a10 10 0 1 0 20 0 a10 10 0 1 0 -20 0zM370 100 a10 10 0 1 0 20 0 a10 10 0 1 0 -20 0z" fill="#3a7cc3"></path><path d="M820 980L820 1060" stroke-width="6.67" stroke="#3a7cc3"></path><path d="M810 980 a10 10 0 1 0 20 0 a10 10 0 1 0 -20 0zM810 1060 a10 10 0 1 0 20 0 a10 10 0 1 0 -20 0z" fill="#3a7cc3"></path><path d="M820 780L820 820L780 860" stroke-width="6.67" stroke="#3a7cc3"></path><path d="M810 780 a10 10 0 1 0 20 0 a10 10 0 1 0 -20 0zM770 860 a10 10 0 1 0 20 0 a10 10 0 1 0 -20 0z" fill="#3a7cc3"></path><path d="M1540 220L1620 140" stroke-width="6.67" stroke="#3a7cc3"></path><path d="M1530 220 a10 10 0 1 0 20 0 a10 10 0 1 0 -20 0zM1610 140 a10 10 0 1 0 20 0 a10 10 0 1 0 -20 0z" fill="#3a7cc3"></path><path d="M1060 300L1140 300" stroke-width="6.67" stroke="#3a7cc3"></path><path d="M1050 300 a10 10 0 1 0 20 0 a10 10 0 1 0 -20 0zM1130 300 a10 10 0 1 0 20 0 a10 10 0 1 0 -20 0z" fill="#3a7cc3"></path><path d="M780 220L780 60" stroke-width="6.67" stroke="#3a7cc3"></path><path d="M770 220 a10 10 0 1 0 20 0 a10 10 0 1 0 -20 0zM770 60 a10 10 0 1 0 20 0 a10 10 0 1 0 -20 0z" fill="#3a7cc3"></path><path d="M220 820L220 980" stroke-width="6.67" stroke="#3a7cc3"></path><path d="M210 820 a10 10 0 1 0 20 0 a10 10 0 1 0 -20 0zM210 980 a10 10 0 1 0 20 0 a10 10 0 1 0 -20 0z" fill="#3a7cc3"></path><path d="M1860 140L1860 60L1820 20L1620 20L1580 60L1420 60" stroke-width="6.67" stroke="#3a7cc3"></path><path d="M1850 140 a10 10 0 1 0 20 0 a10 10 0 1 0 -20 0zM1410 60 a10 10 0 1 0 20 0 a10 10 0 1 0 -20 0z" fill="#3a7cc3"></path><path d="M1060 460L1020 460L940 540L940 580L1060 700L1140 700" stroke-width="6.67" stroke="#3a7cc3"></path><path d="M1050 460 a10 10 0 1 0 20 0 a10 10 0 1 0 -20 0zM1130 700 a10 10 0 1 0 20 0 a10 10 0 1 0 -20 0z" fill="#3a7cc3"></path><path d="M580 580L620 580L660 620" stroke-width="6.67" stroke="#3a7cc3"></path><path d="M570 580 a10 10 0 1 0 20 0 a10 10 0 1 0 -20 0zM650 620 a10 10 0 1 0 20 0 a10 10 0 1 0 -20 0z" fill="#3a7cc3"></path><path d="M940 300L1140 500L1140 660" stroke-width="6.67" stroke="#3a7cc3"></path><path d="M930 300 a10 10 0 1 0 20 0 a10 10 0 1 0 -20 0zM1130 660 a10 10 0 1 0 20 0 a10 10 0 1 0 -20 0z" fill="#3a7cc3"></path><path d="M1500 380L1460 380L1380 460L1380 500L1460 580L1500 580" stroke-width="6.67" stroke="#3a7cc3"></path><path d="M1490 380 a10 10 0 1 0 20 0 a10 10 0 1 0 -20 0zM1490 580 a10 10 0 1 0 20 0 a10 10 0 1 0 -20 0z" fill="#3a7cc3"></path><path d="M60 580L140 580L260 460" stroke-width="6.67" stroke="#3a7cc3"></path><path d="M50 580 a10 10 0 1 0 20 0 a10 10 0 1 0 -20 0zM250 460 a10 10 0 1 0 20 0 a10 10 0 1 0 -20 0z" fill="#3a7cc3"></path><path d="M100 940L180 1020L180 1060" stroke-width="6.67" stroke="#3a7cc3"></path><path d="M90 940 a10 10 0 1 0 20 0 a10 10 0 1 0 -20 0zM170 1060 a10 10 0 1 0 20 0 a10 10 0 1 0 -20 0z" fill="#3a7cc3"></path><path d="M500 260L580 180" stroke-width="6.67" stroke="#3a7cc3"></path><path d="M490 260 a10 10 0 1 0 20 0 a10 10 0 1 0 -20 0zM570 180 a10 10 0 1 0 20 0 a10 10 0 1 0 -20 0z" fill="#3a7cc3"></path><path d="M740 420L820 340" stroke-width="6.67" stroke="#3a7cc3"></path><path d="M730 420 a10 10 0 1 0 20 0 a10 10 0 1 0 -20 0zM810 340 a10 10 0 1 0 20 0 a10 10 0 1 0 -20 0z" fill="#3a7cc3"></path><path d="M1620 60L1820 60" stroke-width="6.67" stroke="#3a7cc3"></path><path d="M1610 60 a10 10 0 1 0 20 0 a10 10 0 1 0 -20 0zM1810 60 a10 10 0 1 0 20 0 a10 10 0 1 0 -20 0z" fill="#3a7cc3"></path><path d="M140 1060L140 1020L60 940L60 660" stroke-width="6.67" stroke="#3a7cc3"></path><path d="M130 1060 a10 10 0 1 0 20 0 a10 10 0 1 0 -20 0zM50 660 a10 10 0 1 0 20 0 a10 10 0 1 0 -20 0z" fill="#3a7cc3"></path><path d="M1540 1020L1380 860L1380 820L1540 660L1580 660" stroke-width="6.67" stroke="#3a7cc3"></path><path d="M1530 1020 a10 10 0 1 0 20 0 a10 10 0 1 0 -20 0zM1570 660 a10 10 0 1 0 20 0 a10 10 0 1 0 -20 0z" fill="#3a7cc3"></path><path d="M740 580L740 460L820 380L860 380L900 420L900 460L780 580" stroke-width="6.67" stroke="#3a7cc3"></path><path d="M730 580 a10 10 0 1 0 20 0 a10 10 0 1 0 -20 0zM770 580 a10 10 0 1 0 20 0 a10 10 0 1 0 -20 0z" fill="#3a7cc3"></path><path d="M1700 260L1780 180L1780 100" stroke-width="6.67" stroke="#3a7cc3"></path><path d="M1690 260 a10 10 0 1 0 20 0 a10 10 0 1 0 -20 0zM1770 100 a10 10 0 1 0 20 0 a10 10 0 1 0 -20 0z" fill="#3a7cc3"></path><path d="M1540 940L1500 940L1420 860L1420 820L1540 700L1580 700" stroke-width="6.67" stroke="#3a7cc3"></path><path d="M1530 940 a10 10 0 1 0 20 0 a10 10 0 1 0 -20 0zM1570 700 a10 10 0 1 0 20 0 a10 10 0 1 0 -20 0z" fill="#3a7cc3"></path><path d="M1700 500L1780 580L1780 740" stroke-width="6.67" stroke="#3a7cc3"></path><path d="M1690 500 a10 10 0 1 0 20 0 a10 10 0 1 0 -20 0zM1770 740 a10 10 0 1 0 20 0 a10 10 0 1 0 -20 0z" fill="#3a7cc3"></path><path d="M1380 660L1340 700L1340 780" stroke-width="6.67" stroke="#3a7cc3"></path><path d="M1370 660 a10 10 0 1 0 20 0 a10 10 0 1 0 -20 0zM1330 780 a10 10 0 1 0 20 0 a10 10 0 1 0 -20 0z" fill="#3a7cc3"></path><path d="M220 620L220 780" stroke-width="6.67" stroke="#3a7cc3"></path><path d="M210 620 a10 10 0 1 0 20 0 a10 10 0 1 0 -20 0zM210 780 a10 10 0 1 0 20 0 a10 10 0 1 0 -20 0z" fill="#3a7cc3"></path><path d="M1020 180L1100 260L1140 260" stroke-width="6.67" stroke="#3a7cc3"></path><path d="M1010 180 a10 10 0 1 0 20 0 a10 10 0 1 0 -20 0zM1130 260 a10 10 0 1 0 20 0 a10 10 0 1 0 -20 0z" fill="#3a7cc3"></path><path d="M1460 980L1540 1060" stroke-width="6.67" stroke="#3a7cc3"></path><path d="M1450 980 a10 10 0 1 0 20 0 a10 10 0 1 0 -20 0zM1530 1060 a10 10 0 1 0 20 0 a10 10 0 1 0 -20 0z" fill="#3a7cc3"></path><path d="M140 460L20 460" stroke-width="6.67" stroke="#3a7cc3"></path><path d="M130 460 a10 10 0 1 0 20 0 a10 10 0 1 0 -20 0zM10 460 a10 10 0 1 0 20 0 a10 10 0 1 0 -20 0z" fill="#3a7cc3"></path><path d="M1060 620L1100 580L1100 500" stroke-width="6.67" stroke="#3a7cc3"></path><path d="M1050 620 a10 10 0 1 0 20 0 a10 10 0 1 0 -20 0zM1090 500 a10 10 0 1 0 20 0 a10 10 0 1 0 -20 0z" fill="#3a7cc3"></path><path d="M60 20L60 60L100 100" stroke-width="6.67" stroke="#3a7cc3"></path><path d="M50 20 a10 10 0 1 0 20 0 a10 10 0 1 0 -20 0zM90 100 a10 10 0 1 0 20 0 a10 10 0 1 0 -20 0z" fill="#3a7cc3"></path><path d="M780 460L780 540" stroke-width="6.67" stroke="#3a7cc3"></path><path d="M770 460 a10 10 0 1 0 20 0 a10 10 0 1 0 -20 0zM770 540 a10 10 0 1 0 20 0 a10 10 0 1 0 -20 0z" fill="#3a7cc3"></path><path d="M20 540L140 540L220 460" stroke-width="6.67" stroke="#3a7cc3"></path><path d="M10 540 a10 10 0 1 0 20 0 a10 10 0 1 0 -20 0zM210 460 a10 10 0 1 0 20 0 a10 10 0 1 0 -20 0z" fill="#3a7cc3"></path><path d="M1740 420L1780 460L1860 460" stroke-width="6.67" stroke="#3a7cc3"></path><path d="M1730 420 a10 10 0 1 0 20 0 a10 10 0 1 0 -20 0zM1850 460 a10 10 0 1 0 20 0 a10 10 0 1 0 -20 0z" fill="#3a7cc3"></path><path d="M1740 980L1740 820L1700 780" stroke-width="6.67" stroke="#3a7cc3"></path><path d="M1730 980 a10 10 0 1 0 20 0 a10 10 0 1 0 -20 0zM1690 780 a10 10 0 1 0 20 0 a10 10 0 1 0 -20 0z" fill="#3a7cc3"></path><path d="M180 900L140 860L100 860" stroke-width="6.67" stroke="#3a7cc3"></path><path d="M170 900 a10 10 0 1 0 20 0 a10 10 0 1 0 -20 0zM90 860 a10 10 0 1 0 20 0 a10 10 0 1 0 -20 0z" fill="#3a7cc3"></path><path d="M1500 420L1420 500" stroke-width="6.67" stroke="#3a7cc3"></path><path d="M1490 420 a10 10 0 1 0 20 0 a10 10 0 1 0 -20 0zM1410 500 a10 10 0 1 0 20 0 a10 10 0 1 0 -20 0z" fill="#3a7cc3"></path><path d="M860 220L940 220L1060 100L1100 100L1140 140L1140 220" stroke-width="6.67" stroke="#3a7cc3"></path><path d="M850 220 a10 10 0 1 0 20 0 a10 10 0 1 0 -20 0zM1130 220 a10 10 0 1 0 20 0 a10 10 0 1 0 -20 0z" fill="#3a7cc3"></path><path d="M140 260L180 260L220 300L340 300L380 260L380 220" stroke-width="6.67" stroke="#3a7cc3"></path><path d="M130 260 a10 10 0 1 0 20 0 a10 10 0 1 0 -20 0zM370 220 a10 10 0 1 0 20 0 a10 10 0 1 0 -20 0z" fill="#3a7cc3"></path><path d="M1380 980L1340 980L1260 1060" stroke-width="6.67" stroke="#3a7cc3"></path><path d="M1370 980 a10 10 0 1 0 20 0 a10 10 0 1 0 -20 0zM1250 1060 a10 10 0 1 0 20 0 a10 10 0 1 0 -20 0z" fill="#3a7cc3"></path><path d="M1500 900L1540 900L1580 860L1580 740" stroke-width="6.67" stroke="#3a7cc3"></path><path d="M1490 900 a10 10 0 1 0 20 0 a10 10 0 1 0 -20 0zM1570 740 a10 10 0 1 0 20 0 a10 10 0 1 0 -20 0z" fill="#3a7cc3"></path><path d="M1580 340L1620 380L1620 420" stroke-width="6.67" stroke="#3a7cc3"></path><path d="M1570 340 a10 10 0 1 0 20 0 a10 10 0 1 0 -20 0zM1610 420 a10 10 0 1 0 20 0 a10 10 0 1 0 -20 0z" fill="#3a7cc3"></path><path d="M180 940L140 900L100 900" stroke-width="6.67" stroke="#3a7cc3"></path><path d="M170 940 a10 10 0 1 0 20 0 a10 10 0 1 0 -20 0zM90 900 a10 10 0 1 0 20 0 a10 10 0 1 0 -20 0z" fill="#3a7cc3"></path><path d="M1100 220L1100 140" stroke-width="6.67" stroke="#3a7cc3"></path><path d="M1090 220 a10 10 0 1 0 20 0 a10 10 0 1 0 -20 0zM1090 140 a10 10 0 1 0 20 0 a10 10 0 1 0 -20 0z" fill="#3a7cc3"></path><path d="M1020 580L1020 500" stroke-width="6.67" stroke="#3a7cc3"></path><path d="M1010 580 a10 10 0 1 0 20 0 a10 10 0 1 0 -20 0zM1010 500 a10 10 0 1 0 20 0 a10 10 0 1 0 -20 0z" fill="#3a7cc3"></path><path d="M940 140L980 100L1020 100" stroke-width="6.67" stroke="#3a7cc3"></path><path d="M930 140 a10 10 0 1 0 20 0 a10 10 0 1 0 -20 0zM1010 100 a10 10 0 1 0 20 0 a10 10 0 1 0 -20 0z" fill="#3a7cc3"></path><path d="M140 660L140 820" stroke-width="6.67" stroke="#3a7cc3"></path><path d="M130 660 a10 10 0 1 0 20 0 a10 10 0 1 0 -20 0zM130 820 a10 10 0 1 0 20 0 a10 10 0 1 0 -20 0z" fill="#3a7cc3"></path><path d="M1340 860L1260 940L1260 980" stroke-width="6.67" stroke="#3a7cc3"></path><path d="M1330 860 a10 10 0 1 0 20 0 a10 10 0 1 0 -20 0zM1250 980 a10 10 0 1 0 20 0 a10 10 0 1 0 -20 0z" fill="#3a7cc3"></path><path d="M1820 700L1860 660L1860 620L1820 580" stroke-width="6.67" stroke="#3a7cc3"></path><path d="M1810 700 a10 10 0 1 0 20 0 a10 10 0 1 0 -20 0zM1810 580 a10 10 0 1 0 20 0 a10 10 0 1 0 -20 0z" fill="#3a7cc3"></path><path d="M1700 940L1660 980L1660 1020" stroke-width="6.67" stroke="#3a7cc3"></path><path d="M1690 940 a10 10 0 1 0 20 0 a10 10 0 1 0 -20 0zM1650 1020 a10 10 0 1 0 20 0 a10 10 0 1 0 -20 0z" fill="#3a7cc3"></path><path d="M980 1020L1020 980L1140 980" stroke-width="6.67" stroke="#3a7cc3"></path><path d="M970 1020 a10 10 0 1 0 20 0 a10 10 0 1 0 -20 0zM1130 980 a10 10 0 1 0 20 0 a10 10 0 1 0 -20 0z" fill="#3a7cc3"></path><path d="M1500 460L1460 500L1460 540" stroke-width="6.67" stroke="#3a7cc3"></path><path d="M1490 460 a10 10 0 1 0 20 0 a10 10 0 1 0 -20 0zM1450 540 a10 10 0 1 0 20 0 a10 10 0 1 0 -20 0z" fill="#3a7cc3"></path><path d="M20 500L140 500" stroke-width="6.67" stroke="#3a7cc3"></path><path d="M10 500 a10 10 0 1 0 20 0 a10 10 0 1 0 -20 0zM130 500 a10 10 0 1 0 20 0 a10 10 0 1 0 -20 0z" fill="#3a7cc3"></path><path d="M1020 1020L1100 1020" stroke-width="6.67" stroke="#3a7cc3"></path><path d="M1010 1020 a10 10 0 1 0 20 0 a10 10 0 1 0 -20 0zM1090 1020 a10 10 0 1 0 20 0 a10 10 0 1 0 -20 0z" fill="#3a7cc3"></path><path d="M420 900L340 900" stroke-width="6.67" stroke="#3a7cc3"></path><path d="M410 900 a10 10 0 1 0 20 0 a10 10 0 1 0 -20 0zM330 900 a10 10 0 1 0 20 0 a10 10 0 1 0 -20 0z" fill="#3a7cc3"></path><path d="M220 220L220 140" stroke-width="6.67" stroke="#3a7cc3"></path><path d="M210 220 a10 10 0 1 0 20 0 a10 10 0 1 0 -20 0zM210 140 a10 10 0 1 0 20 0 a10 10 0 1 0 -20 0z" fill="#3a7cc3"></path><path d="M1700 900L1700 820" stroke-width="6.67" stroke="#3a7cc3"></path><path d="M1690 900 a10 10 0 1 0 20 0 a10 10 0 1 0 -20 0zM1690 820 a10 10 0 1 0 20 0 a10 10 0 1 0 -20 0z" fill="#3a7cc3"></path><path d="M900 260L820 260" stroke-width="6.67" stroke="#3a7cc3"></path><path d="M890 260 a10 10 0 1 0 20 0 a10 10 0 1 0 -20 0zM810 260 a10 10 0 1 0 20 0 a10 10 0 1 0 -20 0z" fill="#3a7cc3"></path><path d="M1420 1020L1460 1020L1500 1060" stroke-width="6.67" stroke="#3a7cc3"></path><path d="M1410 1020 a10 10 0 1 0 20 0 a10 10 0 1 0 -20 0zM1490 1060 a10 10 0 1 0 20 0 a10 10 0 1 0 -20 0z" fill="#3a7cc3"></path><path d="M1820 1020L1860 1060L1900 1060" stroke-width="6.67" stroke="#3a7cc3"></path><path d="M1810 1020 a10 10 0 1 0 20 0 a10 10 0 1 0 -20 0zM1890 1060 a10 10 0 1 0 20 0 a10 10 0 1 0 -20 0z" fill="#3a7cc3"></path><path d="M660 60L620 60L580 20" stroke-width="6.67" stroke="#3a7cc3"></path><path d="M650 60 a10 10 0 1 0 20 0 a10 10 0 1 0 -20 0zM570 20 a10 10 0 1 0 20 0 a10 10 0 1 0 -20 0z" fill="#3a7cc3"></path><path d="M780 1060L700 1060" stroke-width="6.67" stroke="#3a7cc3"></path><path d="M770 1060 a10 10 0 1 0 20 0 a10 10 0 1 0 -20 0zM690 1060 a10 10 0 1 0 20 0 a10 10 0 1 0 -20 0z" fill="#3a7cc3"></path><path d="M1700 220L1700 140" stroke-width="6.67" stroke="#3a7cc3"></path><path d="M1690 220 a10 10 0 1 0 20 0 a10 10 0 1 0 -20 0zM1690 140 a10 10 0 1 0 20 0 a10 10 0 1 0 -20 0z" fill="#3a7cc3"></path><path d="M380 620L340 580L340 540" stroke-width="6.67" stroke="#3a7cc3"></path><path d="M370 620 a10 10 0 1 0 20 0 a10 10 0 1 0 -20 0zM330 540 a10 10 0 1 0 20 0 a10 10 0 1 0 -20 0z" fill="#3a7cc3"></path><path d="M740 60L740 140" stroke-width="6.67" stroke="#3a7cc3"></path><path d="M730 60 a10 10 0 1 0 20 0 a10 10 0 1 0 -20 0zM730 140 a10 10 0 1 0 20 0 a10 10 0 1 0 -20 0z" fill="#3a7cc3"></path><path d="M580 220L540 260L540 300" stroke-width="6.67" stroke="#3a7cc3"></path><path d="M570 220 a10 10 0 1 0 20 0 a10 10 0 1 0 -20 0zM530 300 a10 10 0 1 0 20 0 a10 10 0 1 0 -20 0z" fill="#3a7cc3"></path><path d="M1420 1060L1380 1020L1340 1020L1300 1060" stroke-width="6.67" stroke="#3a7cc3"></path><path d="M1410 1060 a10 10 0 1 0 20 0 a10 10 0 1 0 -20 0zM1290 1060 a10 10 0 1 0 20 0 a10 10 0 1 0 -20 0z" fill="#3a7cc3"></path><path d="M1260 220L1260 140" stroke-width="6.67" stroke="#3a7cc3"></path><path d="M1250 220 a10 10 0 1 0 20 0 a10 10 0 1 0 -20 0zM1250 140 a10 10 0 1 0 20 0 a10 10 0 1 0 -20 0z" fill="#3a7cc3"></path><path d="M700 60L700 140" stroke-width="6.67" stroke="#3a7cc3"></path><path d="M690 60 a10 10 0 1 0 20 0 a10 10 0 1 0 -20 0zM690 140 a10 10 0 1 0 20 0 a10 10 0 1 0 -20 0z" fill="#3a7cc3"></path><path d="M580 980L660 980" stroke-width="6.67" stroke="#3a7cc3"></path><path d="M570 980 a10 10 0 1 0 20 0 a10 10 0 1 0 -20 0zM650 980 a10 10 0 1 0 20 0 a10 10 0 1 0 -20 0z" fill="#3a7cc3"></path><path d="M1380 700L1420 660L1460 660" stroke-width="6.67" stroke="#3a7cc3"></path><path d="M1370 700 a10 10 0 1 0 20 0 a10 10 0 1 0 -20 0zM1450 660 a10 10 0 1 0 20 0 a10 10 0 1 0 -20 0z" fill="#3a7cc3"></path><path d="M500 220L500 180L460 140" stroke-width="6.67" stroke="#3a7cc3"></path><path d="M490 220 a10 10 0 1 0 20 0 a10 10 0 1 0 -20 0zM450 140 a10 10 0 1 0 20 0 a10 10 0 1 0 -20 0z" fill="#3a7cc3"></path><path d="M1100 340L1020 340L940 260" stroke-width="6.67" stroke="#3a7cc3"></path><path d="M1090 340 a10 10 0 1 0 20 0 a10 10 0 1 0 -20 0zM930 260 a10 10 0 1 0 20 0 a10 10 0 1 0 -20 0z" fill="#3a7cc3"></path><path d="M260 180L260 260" stroke-width="6.67" stroke="#3a7cc3"></path><path d="M250 180 a10 10 0 1 0 20 0 a10 10 0 1 0 -20 0zM250 260 a10 10 0 1 0 20 0 a10 10 0 1 0 -20 0z" fill="#3a7cc3"></path></g></g><defs><mask id="SvgjsMask1003"><rect width="1920" height="1080" fill="#ffffff"></rect></mask><linearGradient x1="10.94%" y1="-19.44%" x2="89.06%" y2="119.44%" gradientUnits="userSpaceOnUse" id="SvgjsLinearGradient1004"><stop stop-color="#0e2a47" offset="0"></stop><stop stop-color="rgba(11, 75, 158, 1)" offset="1"></stop></linearGradient><mask id="SvgjsMask1005"><rect width="1920" height="1080" fill="white"></rect><path d="M1655 940 a5 5 0 1 0 10 0 a5 5 0 1 0 -10 0zM1655 180 a5 5 0 1 0 10 0 a5 5 0 1 0 -10 0z" fill="black"></path><path d="M815 940 a5 5 0 1 0 10 0 a5 5 0 1 0 -10 0zM1575 580 a5 5 0 1 0 10 0 a5 5 0 1 0 -10 0z" fill="black"></path><path d="M95 620 a5 5 0 1 0 10 0 a5 5 0 1 0 -10 0zM15 620 a5 5 0 1 0 10 0 a5 5 0 1 0 -10 0z" fill="black"></path><path d="M975 900 a5 5 0 1 0 10 0 a5 5 0 1 0 -10 0zM215 1060 a5 5 0 1 0 10 0 a5 5 0 1 0 -10 0z" fill="black"></path><path d="M1215 420 a5 5 0 1 0 10 0 a5 5 0 1 0 -10 0zM935 940 a5 5 0 1 0 10 0 a5 5 0 1 0 -10 0z" fill="black"></path><path d="M1495 220 a5 5 0 1 0 10 0 a5 5 0 1 0 -10 0zM735 20 a5 5 0 1 0 10 0 a5 5 0 1 0 -10 0z" fill="black"></path><path d="M1735 340 a5 5 0 1 0 10 0 a5 5 0 1 0 -10 0zM1855 1020 a5 5 0 1 0 10 0 a5 5 0 1 0 -10 0z" fill="black"></path><path d="M175 860 a5 5 0 1 0 10 0 a5 5 0 1 0 -10 0zM695 460 a5 5 0 1 0 10 0 a5 5 0 1 0 -10 0z" fill="black"></path><path d="M135 20 a5 5 0 1 0 10 0 a5 5 0 1 0 -10 0zM895 380 a5 5 0 1 0 10 0 a5 5 0 1 0 -10 0z" fill="black"></path><path d="M775 340 a5 5 0 1 0 10 0 a5 5 0 1 0 -10 0zM15 420 a5 5 0 1 0 10 0 a5 5 0 1 0 -10 0z" fill="black"></path><path d="M735 380 a5 5 0 1 0 10 0 a5 5 0 1 0 -10 0zM655 420 a5 5 0 1 0 10 0 a5 5 0 1 0 -10 0z" fill="black"></path><path d="M1735 260 a5 5 0 1 0 10 0 a5 5 0 1 0 -10 0zM1895 260 a5 5 0 1 0 10 0 a5 5 0 1 0 -10 0z" fill="black"></path><path d="M255 980 a5 5 0 1 0 10 0 a5 5 0 1 0 -10 0zM615 700 a5 5 0 1 0 10 0 a5 5 0 1 0 -10 0z" fill="black"></path><path d="M1575 900 a5 5 0 1 0 10 0 a5 5 0 1 0 -10 0zM1575 1060 a5 5 0 1 0 10 0 a5 5 0 1 0 -10 0z" fill="black"></path><path d="M1775 220 a5 5 0 1 0 10 0 a5 5 0 1 0 -10 0zM1895 220 a5 5 0 1 0 10 0 a5 5 0 1 0 -10 0z" fill="black"></path><path d="M295 220 a5 5 0 1 0 10 0 a5 5 0 1 0 -10 0zM775 300 a5 5 0 1 0 10 0 a5 5 0 1 0 -10 0z" fill="black"></path><path d="M95 300 a5 5 0 1 0 10 0 a5 5 0 1 0 -10 0zM735 300 a5 5 0 1 0 10 0 a5 5 0 1 0 -10 0z" fill="black"></path><path d="M1295 780 a5 5 0 1 0 10 0 a5 5 0 1 0 -10 0zM1175 100 a5 5 0 1 0 10 0 a5 5 0 1 0 -10 0z" fill="black"></path><path d="M1815 820 a5 5 0 1 0 10 0 a5 5 0 1 0 -10 0zM1615 1060 a5 5 0 1 0 10 0 a5 5 0 1 0 -10 0z" fill="black"></path><path d="M1375 900 a5 5 0 1 0 10 0 a5 5 0 1 0 -10 0zM1135 1060 a5 5 0 1 0 10 0 a5 5 0 1 0 -10 0z" fill="black"></path><path d="M455 1020 a5 5 0 1 0 10 0 a5 5 0 1 0 -10 0zM295 940 a5 5 0 1 0 10 0 a5 5 0 1 0 -10 0z" fill="black"></path><path d="M175 980 a5 5 0 1 0 10 0 a5 5 0 1 0 -10 0zM415 1020 a5 5 0 1 0 10 0 a5 5 0 1 0 -10 0z" fill="black"></path><path d="M1575 20 a5 5 0 1 0 10 0 a5 5 0 1 0 -10 0zM1335 20 a5 5 0 1 0 10 0 a5 5 0 1 0 -10 0z" fill="black"></path><path d="M695 500 a5 5 0 1 0 10 0 a5 5 0 1 0 -10 0zM495 540 a5 5 0 1 0 10 0 a5 5 0 1 0 -10 0z" fill="black"></path><path d="M15 700 a5 5 0 1 0 10 0 a5 5 0 1 0 -10 0zM15 1060 a5 5 0 1 0 10 0 a5 5 0 1 0 -10 0z" fill="black"></path><path d="M975 460 a5 5 0 1 0 10 0 a5 5 0 1 0 -10 0zM455 980 a5 5 0 1 0 10 0 a5 5 0 1 0 -10 0z" fill="black"></path><path d="M295 580 a5 5 0 1 0 10 0 a5 5 0 1 0 -10 0zM295 900 a5 5 0 1 0 10 0 a5 5 0 1 0 -10 0z" fill="black"></path><path d="M695 540 a5 5 0 1 0 10 0 a5 5 0 1 0 -10 0zM335 780 a5 5 0 1 0 10 0 a5 5 0 1 0 -10 0z" fill="black"></path><path d="M95 780 a5 5 0 1 0 10 0 a5 5 0 1 0 -10 0zM295 460 a5 5 0 1 0 10 0 a5 5 0 1 0 -10 0z" fill="black"></path><path d="M95 140 a5 5 0 1 0 10 0 a5 5 0 1 0 -10 0zM415 60 a5 5 0 1 0 10 0 a5 5 0 1 0 -10 0z" fill="black"></path><path d="M15 60 a5 5 0 1 0 10 0 a5 5 0 1 0 -10 0zM55 380 a5 5 0 1 0 10 0 a5 5 0 1 0 -10 0z" fill="black"></path><path d="M1055 860 a5 5 0 1 0 10 0 a5 5 0 1 0 -10 0zM1135 100 a5 5 0 1 0 10 0 a5 5 0 1 0 -10 0z" fill="black"></path><path d="M695 820 a5 5 0 1 0 10 0 a5 5 0 1 0 -10 0zM495 1020 a5 5 0 1 0 10 0 a5 5 0 1 0 -10 0z" fill="black"></path><path d="M975 700 a5 5 0 1 0 10 0 a5 5 0 1 0 -10 0zM535 1020 a5 5 0 1 0 10 0 a5 5 0 1 0 -10 0z" fill="black"></path><path d="M455 580 a5 5 0 1 0 10 0 a5 5 0 1 0 -10 0zM335 740 a5 5 0 1 0 10 0 a5 5 0 1 0 -10 0z" fill="black"></path><path d="M895 580 a5 5 0 1 0 10 0 a5 5 0 1 0 -10 0zM855 860 a5 5 0 1 0 10 0 a5 5 0 1 0 -10 0z" fill="black"></path><path d="M1775 780 a5 5 0 1 0 10 0 a5 5 0 1 0 -10 0zM1855 780 a5 5 0 1 0 10 0 a5 5 0 1 0 -10 0z" fill="black"></path><path d="M1855 340 a5 5 0 1 0 10 0 a5 5 0 1 0 -10 0zM1695 300 a5 5 0 1 0 10 0 a5 5 0 1 0 -10 0z" fill="black"></path><path d="M1135 820 a5 5 0 1 0 10 0 a5 5 0 1 0 -10 0zM1015 900 a5 5 0 1 0 10 0 a5 5 0 1 0 -10 0z" fill="black"></path><path d="M1535 420 a5 5 0 1 0 10 0 a5 5 0 1 0 -10 0zM1655 140 a5 5 0 1 0 10 0 a5 5 0 1 0 -10 0z" fill="black"></path><path d="M575 700 a5 5 0 1 0 10 0 a5 5 0 1 0 -10 0zM375 740 a5 5 0 1 0 10 0 a5 5 0 1 0 -10 0z" fill="black"></path><path d="M1775 540 a5 5 0 1 0 10 0 a5 5 0 1 0 -10 0zM1855 540 a5 5 0 1 0 10 0 a5 5 0 1 0 -10 0z" fill="black"></path><path d="M1615 1020 a5 5 0 1 0 10 0 a5 5 0 1 0 -10 0zM1575 620 a5 5 0 1 0 10 0 a5 5 0 1 0 -10 0z" fill="black"></path><path d="M415 180 a5 5 0 1 0 10 0 a5 5 0 1 0 -10 0zM375 180 a5 5 0 1 0 10 0 a5 5 0 1 0 -10 0z" fill="black"></path><path d="M1655 100 a5 5 0 1 0 10 0 a5 5 0 1 0 -10 0zM1375 60 a5 5 0 1 0 10 0 a5 5 0 1 0 -10 0z" fill="black"></path><path d="M895 740 a5 5 0 1 0 10 0 a5 5 0 1 0 -10 0zM935 660 a5 5 0 1 0 10 0 a5 5 0 1 0 -10 0z" fill="black"></path><path d="M815 140 a5 5 0 1 0 10 0 a5 5 0 1 0 -10 0zM1495 260 a5 5 0 1 0 10 0 a5 5 0 1 0 -10 0z" fill="black"></path><path d="M615 940 a5 5 0 1 0 10 0 a5 5 0 1 0 -10 0zM815 660 a5 5 0 1 0 10 0 a5 5 0 1 0 -10 0z" fill="black"></path><path d="M1615 580 a5 5 0 1 0 10 0 a5 5 0 1 0 -10 0zM1575 500 a5 5 0 1 0 10 0 a5 5 0 1 0 -10 0z" fill="black"></path><path d="M455 740 a5 5 0 1 0 10 0 a5 5 0 1 0 -10 0zM455 660 a5 5 0 1 0 10 0 a5 5 0 1 0 -10 0z" fill="black"></path><path d="M655 660 a5 5 0 1 0 10 0 a5 5 0 1 0 -10 0zM535 580 a5 5 0 1 0 10 0 a5 5 0 1 0 -10 0z" fill="black"></path><path d="M1255 780 a5 5 0 1 0 10 0 a5 5 0 1 0 -10 0zM1215 140 a5 5 0 1 0 10 0 a5 5 0 1 0 -10 0z" fill="black"></path><path d="M1695 420 a5 5 0 1 0 10 0 a5 5 0 1 0 -10 0zM1855 500 a5 5 0 1 0 10 0 a5 5 0 1 0 -10 0z" fill="black"></path><path d="M1175 900 a5 5 0 1 0 10 0 a5 5 0 1 0 -10 0zM1095 900 a5 5 0 1 0 10 0 a5 5 0 1 0 -10 0z" fill="black"></path><path d="M1855 20 a5 5 0 1 0 10 0 a5 5 0 1 0 -10 0zM1895 180 a5 5 0 1 0 10 0 a5 5 0 1 0 -10 0z" fill="black"></path><path d="M455 900 a5 5 0 1 0 10 0 a5 5 0 1 0 -10 0zM335 820 a5 5 0 1 0 10 0 a5 5 0 1 0 -10 0z" fill="black"></path><path d="M655 580 a5 5 0 1 0 10 0 a5 5 0 1 0 -10 0zM575 540 a5 5 0 1 0 10 0 a5 5 0 1 0 -10 0z" fill="black"></path><path d="M935 340 a5 5 0 1 0 10 0 a5 5 0 1 0 -10 0zM735 660 a5 5 0 1 0 10 0 a5 5 0 1 0 -10 0z" fill="black"></path><path d="M1775 940 a5 5 0 1 0 10 0 a5 5 0 1 0 -10 0zM1695 660 a5 5 0 1 0 10 0 a5 5 0 1 0 -10 0z" fill="black"></path><path d="M415 300 a5 5 0 1 0 10 0 a5 5 0 1 0 -10 0zM375 100 a5 5 0 1 0 10 0 a5 5 0 1 0 -10 0z" fill="black"></path><path d="M815 980 a5 5 0 1 0 10 0 a5 5 0 1 0 -10 0zM815 1060 a5 5 0 1 0 10 0 a5 5 0 1 0 -10 0z" fill="black"></path><path d="M815 780 a5 5 0 1 0 10 0 a5 5 0 1 0 -10 0zM775 860 a5 5 0 1 0 10 0 a5 5 0 1 0 -10 0z" fill="black"></path><path d="M1535 220 a5 5 0 1 0 10 0 a5 5 0 1 0 -10 0zM1615 140 a5 5 0 1 0 10 0 a5 5 0 1 0 -10 0z" fill="black"></path><path d="M1055 300 a5 5 0 1 0 10 0 a5 5 0 1 0 -10 0zM1135 300 a5 5 0 1 0 10 0 a5 5 0 1 0 -10 0z" fill="black"></path><path d="M775 220 a5 5 0 1 0 10 0 a5 5 0 1 0 -10 0zM775 60 a5 5 0 1 0 10 0 a5 5 0 1 0 -10 0z" fill="black"></path><path d="M215 820 a5 5 0 1 0 10 0 a5 5 0 1 0 -10 0zM215 980 a5 5 0 1 0 10 0 a5 5 0 1 0 -10 0z" fill="black"></path><path d="M1855 140 a5 5 0 1 0 10 0 a5 5 0 1 0 -10 0zM1415 60 a5 5 0 1 0 10 0 a5 5 0 1 0 -10 0z" fill="black"></path><path d="M1055 460 a5 5 0 1 0 10 0 a5 5 0 1 0 -10 0zM1135 700 a5 5 0 1 0 10 0 a5 5 0 1 0 -10 0z" fill="black"></path><path d="M575 580 a5 5 0 1 0 10 0 a5 5 0 1 0 -10 0zM655 620 a5 5 0 1 0 10 0 a5 5 0 1 0 -10 0z" fill="black"></path><path d="M935 300 a5 5 0 1 0 10 0 a5 5 0 1 0 -10 0zM1135 660 a5 5 0 1 0 10 0 a5 5 0 1 0 -10 0z" fill="black"></path><path d="M1495 380 a5 5 0 1 0 10 0 a5 5 0 1 0 -10 0zM1495 580 a5 5 0 1 0 10 0 a5 5 0 1 0 -10 0z" fill="black"></path><path d="M55 580 a5 5 0 1 0 10 0 a5 5 0 1 0 -10 0zM255 460 a5 5 0 1 0 10 0 a5 5 0 1 0 -10 0z" fill="black"></path><path d="M95 940 a5 5 0 1 0 10 0 a5 5 0 1 0 -10 0zM175 1060 a5 5 0 1 0 10 0 a5 5 0 1 0 -10 0z" fill="black"></path><path d="M495 260 a5 5 0 1 0 10 0 a5 5 0 1 0 -10 0zM575 180 a5 5 0 1 0 10 0 a5 5 0 1 0 -10 0z" fill="black"></path><path d="M735 420 a5 5 0 1 0 10 0 a5 5 0 1 0 -10 0zM815 340 a5 5 0 1 0 10 0 a5 5 0 1 0 -10 0z" fill="black"></path><path d="M1615 60 a5 5 0 1 0 10 0 a5 5 0 1 0 -10 0zM1815 60 a5 5 0 1 0 10 0 a5 5 0 1 0 -10 0z" fill="black"></path><path d="M135 1060 a5 5 0 1 0 10 0 a5 5 0 1 0 -10 0zM55 660 a5 5 0 1 0 10 0 a5 5 0 1 0 -10 0z" fill="black"></path><path d="M1535 1020 a5 5 0 1 0 10 0 a5 5 0 1 0 -10 0zM1575 660 a5 5 0 1 0 10 0 a5 5 0 1 0 -10 0z" fill="black"></path><path d="M735 580 a5 5 0 1 0 10 0 a5 5 0 1 0 -10 0zM775 580 a5 5 0 1 0 10 0 a5 5 0 1 0 -10 0z" fill="black"></path><path d="M1695 260 a5 5 0 1 0 10 0 a5 5 0 1 0 -10 0zM1775 100 a5 5 0 1 0 10 0 a5 5 0 1 0 -10 0z" fill="black"></path><path d="M1535 940 a5 5 0 1 0 10 0 a5 5 0 1 0 -10 0zM1575 700 a5 5 0 1 0 10 0 a5 5 0 1 0 -10 0z" fill="black"></path><path d="M1695 500 a5 5 0 1 0 10 0 a5 5 0 1 0 -10 0zM1775 740 a5 5 0 1 0 10 0 a5 5 0 1 0 -10 0z" fill="black"></path><path d="M1375 660 a5 5 0 1 0 10 0 a5 5 0 1 0 -10 0zM1335 780 a5 5 0 1 0 10 0 a5 5 0 1 0 -10 0z" fill="black"></path><path d="M215 620 a5 5 0 1 0 10 0 a5 5 0 1 0 -10 0zM215 780 a5 5 0 1 0 10 0 a5 5 0 1 0 -10 0z" fill="black"></path><path d="M1015 180 a5 5 0 1 0 10 0 a5 5 0 1 0 -10 0zM1135 260 a5 5 0 1 0 10 0 a5 5 0 1 0 -10 0z" fill="black"></path><path d="M1455 980 a5 5 0 1 0 10 0 a5 5 0 1 0 -10 0zM1535 1060 a5 5 0 1 0 10 0 a5 5 0 1 0 -10 0z" fill="black"></path><path d="M135 460 a5 5 0 1 0 10 0 a5 5 0 1 0 -10 0zM15 460 a5 5 0 1 0 10 0 a5 5 0 1 0 -10 0z" fill="black"></path><path d="M1055 620 a5 5 0 1 0 10 0 a5 5 0 1 0 -10 0zM1095 500 a5 5 0 1 0 10 0 a5 5 0 1 0 -10 0z" fill="black"></path><path d="M55 20 a5 5 0 1 0 10 0 a5 5 0 1 0 -10 0zM95 100 a5 5 0 1 0 10 0 a5 5 0 1 0 -10 0z" fill="black"></path><path d="M775 460 a5 5 0 1 0 10 0 a5 5 0 1 0 -10 0zM775 540 a5 5 0 1 0 10 0 a5 5 0 1 0 -10 0z" fill="black"></path><path d="M15 540 a5 5 0 1 0 10 0 a5 5 0 1 0 -10 0zM215 460 a5 5 0 1 0 10 0 a5 5 0 1 0 -10 0z" fill="black"></path><path d="M1735 420 a5 5 0 1 0 10 0 a5 5 0 1 0 -10 0zM1855 460 a5 5 0 1 0 10 0 a5 5 0 1 0 -10 0z" fill="black"></path><path d="M1735 980 a5 5 0 1 0 10 0 a5 5 0 1 0 -10 0zM1695 780 a5 5 0 1 0 10 0 a5 5 0 1 0 -10 0z" fill="black"></path><path d="M175 900 a5 5 0 1 0 10 0 a5 5 0 1 0 -10 0zM95 860 a5 5 0 1 0 10 0 a5 5 0 1 0 -10 0z" fill="black"></path><path d="M1495 420 a5 5 0 1 0 10 0 a5 5 0 1 0 -10 0zM1415 500 a5 5 0 1 0 10 0 a5 5 0 1 0 -10 0z" fill="black"></path><path d="M855 220 a5 5 0 1 0 10 0 a5 5 0 1 0 -10 0zM1135 220 a5 5 0 1 0 10 0 a5 5 0 1 0 -10 0z" fill="black"></path><path d="M135 260 a5 5 0 1 0 10 0 a5 5 0 1 0 -10 0zM375 220 a5 5 0 1 0 10 0 a5 5 0 1 0 -10 0z" fill="black"></path><path d="M1375 980 a5 5 0 1 0 10 0 a5 5 0 1 0 -10 0zM1255 1060 a5 5 0 1 0 10 0 a5 5 0 1 0 -10 0z" fill="black"></path><path d="M1495 900 a5 5 0 1 0 10 0 a5 5 0 1 0 -10 0zM1575 740 a5 5 0 1 0 10 0 a5 5 0 1 0 -10 0z" fill="black"></path><path d="M1575 340 a5 5 0 1 0 10 0 a5 5 0 1 0 -10 0zM1615 420 a5 5 0 1 0 10 0 a5 5 0 1 0 -10 0z" fill="black"></path><path d="M175 940 a5 5 0 1 0 10 0 a5 5 0 1 0 -10 0zM95 900 a5 5 0 1 0 10 0 a5 5 0 1 0 -10 0z" fill="black"></path><path d="M1095 220 a5 5 0 1 0 10 0 a5 5 0 1 0 -10 0zM1095 140 a5 5 0 1 0 10 0 a5 5 0 1 0 -10 0z" fill="black"></path><path d="M1015 580 a5 5 0 1 0 10 0 a5 5 0 1 0 -10 0zM1015 500 a5 5 0 1 0 10 0 a5 5 0 1 0 -10 0z" fill="black"></path><path d="M935 140 a5 5 0 1 0 10 0 a5 5 0 1 0 -10 0zM1015 100 a5 5 0 1 0 10 0 a5 5 0 1 0 -10 0z" fill="black"></path><path d="M135 660 a5 5 0 1 0 10 0 a5 5 0 1 0 -10 0zM135 820 a5 5 0 1 0 10 0 a5 5 0 1 0 -10 0z" fill="black"></path><path d="M1335 860 a5 5 0 1 0 10 0 a5 5 0 1 0 -10 0zM1255 980 a5 5 0 1 0 10 0 a5 5 0 1 0 -10 0z" fill="black"></path><path d="M1815 700 a5 5 0 1 0 10 0 a5 5 0 1 0 -10 0zM1815 580 a5 5 0 1 0 10 0 a5 5 0 1 0 -10 0z" fill="black"></path><path d="M1695 940 a5 5 0 1 0 10 0 a5 5 0 1 0 -10 0zM1655 1020 a5 5 0 1 0 10 0 a5 5 0 1 0 -10 0z" fill="black"></path><path d="M975 1020 a5 5 0 1 0 10 0 a5 5 0 1 0 -10 0zM1135 980 a5 5 0 1 0 10 0 a5 5 0 1 0 -10 0z" fill="black"></path><path d="M1495 460 a5 5 0 1 0 10 0 a5 5 0 1 0 -10 0zM1455 540 a5 5 0 1 0 10 0 a5 5 0 1 0 -10 0z" fill="black"></path><path d="M15 500 a5 5 0 1 0 10 0 a5 5 0 1 0 -10 0zM135 500 a5 5 0 1 0 10 0 a5 5 0 1 0 -10 0z" fill="black"></path><path d="M1015 1020 a5 5 0 1 0 10 0 a5 5 0 1 0 -10 0zM1095 1020 a5 5 0 1 0 10 0 a5 5 0 1 0 -10 0z" fill="black"></path><path d="M415 900 a5 5 0 1 0 10 0 a5 5 0 1 0 -10 0zM335 900 a5 5 0 1 0 10 0 a5 5 0 1 0 -10 0z" fill="black"></path><path d="M215 220 a5 5 0 1 0 10 0 a5 5 0 1 0 -10 0zM215 140 a5 5 0 1 0 10 0 a5 5 0 1 0 -10 0z" fill="black"></path><path d="M1695 900 a5 5 0 1 0 10 0 a5 5 0 1 0 -10 0zM1695 820 a5 5 0 1 0 10 0 a5 5 0 1 0 -10 0z" fill="black"></path><path d="M895 260 a5 5 0 1 0 10 0 a5 5 0 1 0 -10 0zM815 260 a5 5 0 1 0 10 0 a5 5 0 1 0 -10 0z" fill="black"></path><path d="M1415 1020 a5 5 0 1 0 10 0 a5 5 0 1 0 -10 0zM1495 1060 a5 5 0 1 0 10 0 a5 5 0 1 0 -10 0z" fill="black"></path><path d="M1815 1020 a5 5 0 1 0 10 0 a5 5 0 1 0 -10 0zM1895 1060 a5 5 0 1 0 10 0 a5 5 0 1 0 -10 0z" fill="black"></path><path d="M655 60 a5 5 0 1 0 10 0 a5 5 0 1 0 -10 0zM575 20 a5 5 0 1 0 10 0 a5 5 0 1 0 -10 0z" fill="black"></path><path d="M775 1060 a5 5 0 1 0 10 0 a5 5 0 1 0 -10 0zM695 1060 a5 5 0 1 0 10 0 a5 5 0 1 0 -10 0z" fill="black"></path><path d="M1695 220 a5 5 0 1 0 10 0 a5 5 0 1 0 -10 0zM1695 140 a5 5 0 1 0 10 0 a5 5 0 1 0 -10 0z" fill="black"></path><path d="M375 620 a5 5 0 1 0 10 0 a5 5 0 1 0 -10 0zM335 540 a5 5 0 1 0 10 0 a5 5 0 1 0 -10 0z" fill="black"></path><path d="M735 60 a5 5 0 1 0 10 0 a5 5 0 1 0 -10 0zM735 140 a5 5 0 1 0 10 0 a5 5 0 1 0 -10 0z" fill="black"></path><path d="M575 220 a5 5 0 1 0 10 0 a5 5 0 1 0 -10 0zM535 300 a5 5 0 1 0 10 0 a5 5 0 1 0 -10 0z" fill="black"></path><path d="M1415 1060 a5 5 0 1 0 10 0 a5 5 0 1 0 -10 0zM1295 1060 a5 5 0 1 0 10 0 a5 5 0 1 0 -10 0z" fill="black"></path><path d="M1255 220 a5 5 0 1 0 10 0 a5 5 0 1 0 -10 0zM1255 140 a5 5 0 1 0 10 0 a5 5 0 1 0 -10 0z" fill="black"></path><path d="M695 60 a5 5 0 1 0 10 0 a5 5 0 1 0 -10 0zM695 140 a5 5 0 1 0 10 0 a5 5 0 1 0 -10 0z" fill="black"></path><path d="M575 980 a5 5 0 1 0 10 0 a5 5 0 1 0 -10 0zM655 980 a5 5 0 1 0 10 0 a5 5 0 1 0 -10 0z" fill="black"></path><path d="M1375 700 a5 5 0 1 0 10 0 a5 5 0 1 0 -10 0zM1455 660 a5 5 0 1 0 10 0 a5 5 0 1 0 -10 0z" fill="black"></path><path d="M495 220 a5 5 0 1 0 10 0 a5 5 0 1 0 -10 0zM455 140 a5 5 0 1 0 10 0 a5 5 0 1 0 -10 0z" fill="black"></path><path d="M1095 340 a5 5 0 1 0 10 0 a5 5 0 1 0 -10 0zM935 260 a5 5 0 1 0 10 0 a5 5 0 1 0 -10 0z" fill="black"></path><path d="M255 180 a5 5 0 1 0 10 0 a5 5 0 1 0 -10 0zM255 260 a5 5 0 1 0 10 0 a5 5 0 1 0 -10 0z" fill="black"></path></mask></defs></svg>